# xmcd CD database file
#
# Track frame offsets:
#	150
#	12630
#	27368
#	39675
#	55013
#	71735
#	91328
#	109818
#	127786
#	141977
#	156886
#	170756
#
# Disc length: 2479 seconds
#
# Revision: 0
# Processed by: cddbd v1.5PL3 Copyright (c) Steve Scherf et al.
# Submitted via: CDex 1.51
#
DISCID=a609ad0c
DTITLE=Jillaine Jones - Soliloque
DYEAR=2003
DGENRE=Blues
TTITLE0=Between
TTITLE1=Anyone
TTITLE2=Melchizidec
TTITLE3=Over It
TTITLE4=Allegedly
TTITLE5=Stranger (Live)
TTITLE6=Angel
TTITLE7=Two Times
TTITLE8=Ripples
TTITLE9=Thankyou
TTITLE10=Silkworm
TTITLE11=Vin Veritas
EXTD=YEAR: 2003
EXTT0=
EXTT1=
EXTT2=
EXTT3=
EXTT4=
EXTT5=
EXTT6=
EXTT7=
EXTT8=
EXTT9=
EXTT10=
EXTT11=
PLAYORDER=
